<?xml version="1.0" encoding="utf-8"?>
<!--Generator: Adobe Illustrator 23.0.0, SVG Export Plug-In . SVG Version: 6.00 Build 0)-->
<svg version="1.1" id="Layer_1" xmlns="http://www.w3.org/2000/svg" xmlns:xlink="http://www.w3.org/1999/xlink" x="0px" y="0px" viewBox="0 0 198.3 66" style="enable-background:new 0 0 198.3 66;" xml:space="preserve">
  <style type="text/css">
    .st0{fill-rule:evenodd;clip-rule:evenodd;fill:#D41B22;}
	.st1{fill-rule:evenodd;clip-rule:evenodd;fill:#EC1C24;}
	.st2{fill-rule:evenodd;clip-rule:evenodd;fill:#231F20;}
  </style>
  <g>
    <path d="M86.1,32.7h-2.2l-2.5-8.3l-2.5,8.3h-2.2l-3.7-13.7h2.8l2.1,8.6l2.5-8.6h2l2.5,8.6l2.1-8.6h2.8L86.1,32.7z"/>
    <path d="M91.5,32.7V18.9h9.1v2.4h-6.4v3.2h5.4v2.4h-5.4v3.3h6.4v2.4L91.5,32.7L91.5,32.7z"/>
    <path d="M109,32.7h-5.8V18.9h5.5c2.7,0,4.3,1.5,4.3,3.9c0,1.5-1,2.5-1.7,2.8c0.8,0.4,1.9,1.3,1.9,3.1
		C113.2,31.3,111.4,32.7,109,32.7z M108.5,21.3h-2.6v3.2h2.6c1.1,0,1.8-0.6,1.8-1.6C110.3,22,109.7,21.3,108.5,21.3z M108.7,26.9
		h-2.8v3.4h2.8c1.2,0,1.8-0.8,1.8-1.7S109.9,26.9,108.7,26.9z"/>
    <path d="M127.8,32.7v-5.7h-4.7v5.7h-2.7V18.9h2.7v5.6h4.7v-5.6h2.7v13.7L127.8,32.7L127.8,32.7z"/>
    <path d="M142,31.3c-1,1-2.1,1.5-3.7,1.5c-1.6,0-2.8-0.5-3.7-1.5c-1.4-1.4-1.4-3.1-1.4-5.5s0-4.1,1.4-5.5c1-1,2.2-1.5,3.7-1.5
		c1.6,0,2.7,0.5,3.7,1.5c1.4,1.4,1.4,3.1,1.4,5.5S143.4,29.9,142,31.3z M140,22c-0.4-0.4-1-0.7-1.7-0.7s-1.4,0.3-1.7,0.7
		c-0.5,0.6-0.7,1.2-0.7,3.9s0.1,3.3,0.7,3.9c0.4,0.4,1,0.7,1.7,0.7c0.7,0,1.3-0.3,1.7-0.7c0.5-0.6,0.7-1.2,0.7-3.9
		S140.5,22.5,140,22z"/>
    <path d="M149.9,32.8c-2.1,0-3.7-0.4-5-1.8l1.7-1.7c0.9,0.9,2,1.2,3.3,1.2c1.6,0,2.4-0.6,2.4-1.7c0-0.5-0.1-0.9-0.4-1.2
		c-0.3-0.3-0.6-0.4-1.2-0.5l-1.7-0.2c-1.2-0.2-2-0.5-2.7-1.1c-0.7-0.7-1-1.5-1-2.7c0-2.4,1.8-4.2,4.8-4.2c1.9,0,3.3,0.5,4.4,1.6
		l-1.7,1.7c-0.9-0.8-1.9-0.9-2.8-0.9c-1.4,0-2.1,0.8-2.1,1.7c0,0.3,0.1,0.7,0.4,1c0.3,0.3,0.7,0.5,1.3,0.5l1.6,0.2
		c1.3,0.2,2,0.5,2.6,1.1c0.7,0.7,1.1,1.7,1.1,2.9C155,31.3,152.8,32.8,149.9,32.8z"/>
    <path d="M162.8,21.3v11.3h-2.7V21.3h-3.6v-2.4h9.9v2.4H162.8z"/>
    <path d="M168.6,32.7V18.9h2.7v13.7H168.6z"/>
    <path d="M182.6,32.7l-5.5-8.4v8.4h-2.7V18.9h2.4l5.5,8.4v-8.4h2.7v13.7H182.6z"/>
    <path d="M195.7,31.2c-1,1-2.3,1.6-3.8,1.6c-1.5,0-2.7-0.5-3.7-1.5c-1.4-1.4-1.4-3.1-1.4-5.5s0-4.1,1.4-5.5c1-1,2.2-1.5,3.7-1.5
		c1.9,0,3,0.5,4.2,1.8l-1.8,1.8c-0.8-0.8-1.3-1.2-2.4-1.2c-0.7,0-1.3,0.3-1.7,0.7c-0.5,0.6-0.7,1.2-0.7,3.9s0.1,3.3,0.7,3.9
		c0.4,0.4,1,0.7,1.7,0.7c0.8,0,1.4-0.3,1.8-0.8c0.4-0.5,0.6-1.2,0.6-1.9v-0.5h-2.4V25h5.1v2C197,29,196.7,30.2,195.7,31.2z"/>
    <path d="M83.2,49.7c-0.3,0.5-0.6,0.9-1,1.3c-0.4,0.3-0.9,0.6-1.4,0.8c-0.5,0.2-1.1,0.3-1.7,0.3c-0.7,0-1.3-0.1-1.9-0.4
		s-1.1-0.6-1.6-1.1c-0.3-0.3-0.6-0.7-0.7-1s-0.3-0.7-0.4-1.2c-0.1-0.4-0.1-0.9-0.1-1.5c0-0.5,0-1.2,0-1.9c0-0.7,0-1.4,0-1.9
		c0-0.5,0.1-1,0.1-1.5c0.1-0.4,0.2-0.8,0.4-1.2s0.4-0.7,0.7-1c0.5-0.5,1-0.8,1.6-1.1s1.2-0.4,1.9-0.4c0.6,0,1.2,0.1,1.7,0.3
		c0.5,0.2,1,0.5,1.4,0.8c0.4,0.3,0.8,0.8,1,1.3c0.3,0.5,0.5,1.1,0.6,1.7h-1.5c-0.2-0.8-0.6-1.5-1.1-2c-0.6-0.5-1.3-0.8-2.1-0.8
		c-0.5,0-0.9,0.1-1.3,0.3s-0.8,0.4-1.1,0.7c-0.2,0.2-0.4,0.5-0.5,0.7c-0.1,0.3-0.2,0.6-0.3,0.9c-0.1,0.4-0.1,0.8-0.1,1.3
		s0,1.1,0,1.8c0,0.7,0,1.3,0,1.8s0.1,0.9,0.1,1.3s0.2,0.7,0.3,0.9c0.1,0.3,0.3,0.5,0.5,0.7c0.3,0.3,0.7,0.5,1.1,0.7
		c0.4,0.2,0.9,0.3,1.3,0.3c0.9,0,1.6-0.3,2.2-0.8c0.6-0.5,1-1.2,1.1-2h1.5C83.7,48.6,83.5,49.2,83.2,49.7z"/>
    <path d="M94.9,51.9l-1.1-3.1h-6l-1.1,3.1h-1.6l5.1-13.7h1.2l5,13.7H94.9z M90.8,40.3l-2.6,7.2h5.1L90.8,40.3z"/>
    <path d="M107.5,51.9l-7.3-11v11h-1.5V38.2h1.4l7.3,11v-11h1.5v13.7H107.5z"/>
    <path d="M120.9,51.9l-1.1-3.1h-6l-1.1,3.1h-1.6l5.1-13.7h1.2l5,13.7H120.9z M116.8,40.3l-2.6,7.2h5.1L116.8,40.3z"/>
    <path d="M134.2,46.4c0,0.5,0,1-0.1,1.5c-0.1,0.5-0.2,1-0.4,1.5c-0.2,0.5-0.5,0.9-0.8,1.2c-0.4,0.4-0.9,0.7-1.5,0.9s-1.3,0.3-2,0.3
		h-4.7V38.2h4.7c0.7,0,1.4,0.1,2,0.3s1.1,0.5,1.5,0.9c0.4,0.4,0.6,0.8,0.8,1.2c0.2,0.4,0.3,0.9,0.4,1.3s0.1,1,0.1,1.4
		c0,0.5,0,1,0,1.5C134.2,45.4,134.2,45.9,134.2,46.4z M132.7,43.6c0-0.4,0-0.8-0.1-1.2c-0.1-0.4-0.1-0.7-0.3-1.1s-0.3-0.6-0.5-0.9
		c-0.4-0.4-0.8-0.6-1.2-0.8c-0.5-0.1-0.9-0.2-1.5-0.2h-3v11.1h3c0.5,0,1-0.1,1.5-0.2s0.9-0.4,1.2-0.8c0.2-0.2,0.4-0.5,0.5-0.9
		c0.1-0.4,0.2-0.8,0.3-1.2c0.1-0.4,0.1-0.9,0.1-1.3c0-0.4,0-0.9,0-1.3C132.7,44.5,132.7,44.1,132.7,43.6z"/>
    <path d="M145.5,51.9l-1.1-3.1h-6l-1.1,3.1h-1.6l5.1-13.7h1.2l5,13.7H145.5z M141.4,40.3l-2.6,7.2h5.1L141.4,40.3z"/>
  </g>
  <g>
    <g>
      <path class="st0" d="M25.2,32c-4.7-0.4-15,1.4-20.4,3.4c-2.8,1-2.6,13.2,4.6,20c0.7,0.6,6.6,3.8,10.7,6.6
			c6.9,4.6,13.1,1.6,15.9-3.3c3-5.5,0.8-13.4,1.1-16.6c0.5-5.6-1.5-7.6-7.1-9.3C29.7,32.7,25.7,32,25.2,32z"/>
      <path class="st0" d="M48.1,34.8c4.1,0,4.5-1.6,8.7-2.2c5.4-0.7,9.3-2.4,8.2-8.1c-2.2-10.7-3.3-6.9-9.8-15.9
			c-3.9-5.4-14.1-6.1-17.4-5.5c-2.7,0.5-3.3,3-4.3,6.7c-1.1,4-1.9,7.6-2.2,10.5C30.2,30.9,38.2,34.8,48.1,34.8z"/>
      <path class="st1" d="M39.7,29.4c5.8-3.4,16.4-2.3,21.1,1.2c6.4,4.7,4.3,6.9,2.7,14.3c-0.9,4-4.7,4.5-6.9,9.7
			c-1.3,3-3.9,4.5-9.5,7.5c-7.4,3.9-13.3-4.5-15.3-12.7c-1-3.9-1-7.9,0-9.9C32.5,38.2,39.6,29.4,39.7,29.4z"/>
      <path class="st1" d="M31.8,34.4c3-4.2,4.6-0.8,5.9-8.6c0.7-4.1,0.9-6.2-1.1-13.3c-2.9-10-5.3-13.7-14.7-8.1
			c-4,2.4-8.2,3.4-11.3,6.7c-2.9,3.1-5.8,6.8-6.8,12.2C2.3,31,3,31,9.4,33.5C14.2,35.5,27.2,37.8,31.8,34.4z"/>
      <path class="st2" d="M41.6,33.9c0,0.1,0.2,4-1.5,3.1c-0.6,0.4,0.6,1.4-2.2,2.4c-0.4,0.2-0.5,1.9-2.1,2.3c-0.5,0.1-1.5,0.4-1.6-0.2
			c-0.3-0.3-0.5,0.6-1.2,0.3c-0.9-0.1-3.3-0.9-4-0.8c0,0-2.4-1-1.8-1.7c-0.2-0.5-0.9-0.3-2.2-1.5c-0.9-0.9,0-1.8-0.9-3
			c-0.7-1.1,1-0.9-0.3-2.7c-0.5-0.7,1.2-0.5,1.7-2.9c0.2-1.1,1.8-0.5,1.8-2.1c0-0.8,2-0.7,3.1-2.7c0.2-0.3,6-1.3,7.3,1.1
			c0.2,0.3,2.3,0.9,2.1,1.8c-0.2,0.7,4,2.5,2.2,4.7C41,33.4,41.9,33.2,41.6,33.9z"/>
    </g>
  </g>
</svg>
